<?xml version="1.0" ?><svg enable-background="new 0 0 32 32" version="1.1" viewBox="0 0 32 32" xml:space="preserve" xmlns="http://www.w3.org/2000/svg" xmlns:xlink="http://www.w3.org/1999/xlink"><g id="Outline_copy_2"><g><path d="M20.205,21.23c-3.583,1.841-6.316-0.233-7.066-3.614c2.147,0,4.295,0,6.442,0c0.134,0,0.608-0.038,0.608-0.26    c0-0.411,0-0.822,0-1.233c0-0.138-0.307-0.152-0.386-0.152c-1.38,0-2.759,0-4.139,0c-0.751,0-1.779,0.183-2.513,0    c-0.812-0.203-0.373-0.193-0.233-1.097c2.22,0,4.441,0,6.661,0c0.134,0,0.608-0.038,0.608-0.26c0-0.42,0-0.839,0-1.259    c0-0.138-0.307-0.152-0.386-0.152c-1.559,0-3.118,0-4.677,0c-0.258,0-1.96,0.222-2.17,0c0.119,0.125,0.46-1.002,0.633-1.283    c1.346-2.196,3.66-3.545,6.313-2.237c0.177,0.087,0.824,0.115,0.903-0.146c0.168-0.553,0.335-1.106,0.503-1.659    c0.02-0.066,0-0.116-0.067-0.148c-4.913-2.365-9.985,0.36-11.223,5.474c-0.373,0-0.746,0-1.12,0c-0.134,0-0.608,0.038-0.608,0.26    c0,0.42,0,0.839,0,1.259c0,0.138,0.307,0.152,0.386,0.152c1.491,0,1.117-0.069,1.058,1.097c-0.279,0-0.557,0-0.835,0    c-0.134,0-0.608,0.038-0.608,0.26c0,0.411,0,0.822,0,1.233c0,0.138,0.307,0.152,0.386,0.152c0.279,0,1.201-0.159,1.396,0    c0.075,0.061,0.344,2.18,0.555,2.623c0.692,1.455,1.892,2.654,3.367,3.31c2.306,1.026,5.132,0.783,7.288-0.486    c0.137-0.049,0.235-0.119,0.213-0.2c-0.142-0.528-0.285-1.057-0.427-1.585C20.994,21,20.373,21.144,20.205,21.23z M10.843,17.355    c-0.023-0.14-0.287-0.152-0.386-0.152c-1.362,0-1.209,0.218-1.178-0.821c0.277,0,0.553,0,0.83,0c0.134,0,0.608-0.038,0.608-0.26    c0-0.505,0.018-1.005,0.05-1.509c0.009-0.136-0.315-0.152-0.386-0.152c-1.34,0-1.142,0.19-1.104-0.846c0.352,0,0.705,0,1.057,0    c0.178,0,0.561-0.036,0.608-0.26c0.604-2.842,2.074-4.972,4.975-5.709c1.17-0.297,4.031-0.774,4.289,0.66    c0.033,0.183-0.081,0.488-0.195,0.769c-3.561-1.332-6.914,0.481-7.816,4.334c-0.044,0.188,0.25,0.207,0.374,0.207    c1.405,0,2.811,0,4.216,0c0.6,0,1.734-0.204,2.311,0c0.481,0.17,0.171,0.048,0.11,0.846c-2.213,0-4.427,0-6.64,0    c-0.147,0-0.593,0.037-0.608,0.26c-0.034,0.505-0.05,1.003-0.05,1.509c0,0.138,0.307,0.152,0.386,0.152c1.461,0,2.921,0,4.382,0    c0.681,0,1.737-0.183,2.402,0c0.523,0.145,0.196,0.037,0.13,0.821c-2.172,0-4.344,0-6.516,0c-0.096,0-0.648,0.047-0.608,0.26    c0.791,4.215,4.41,5.789,8.095,4.316c0.1,0.371,0.2,0.743,0.3,1.114C15.782,25.603,11.568,21.869,10.843,17.355z"/><path d="M20.647,0.906C14.701-0.803,8.011,1.046,3.899,5.699c-4.612,5.22-5.205,13.064-1.391,18.902    c3.62,5.542,10.458,8.142,16.878,6.749C26.712,29.76,31.837,23.374,32,15.924C31.848,9,27.376,2.84,20.647,0.906z M14.828,31.25    C7.014,30.561,0.95,23.707,0.95,15.924c0-8.604,7.458-15.942,16.184-15.171c7.927,0.7,13.708,7.539,13.878,15.327    C30.824,24.677,23.686,32.032,14.828,31.25z"/></g></g></svg>