<?xml version="1.0" encoding="utf-8"?>
<!-- Generator: Adobe Illustrator 23.0.6, SVG Export Plug-In . SVG Version: 6.00 Build 0)  -->
<svg version="1.1" id="Calque_1" xmlns="http://www.w3.org/2000/svg" xmlns:xlink="http://www.w3.org/1999/xlink" x="0px" y="0px"
	 viewBox="0 0 206 57" style="enable-background:new 0 0 206 57;" xml:space="preserve">
<style type="text/css">
	.st0{enable-background:new    ;}
	.st1{fill:#01A8DE;}
	.st2{fill:#444444;}
</style>
<title>logo/logo-home-services</title>
<desc>Created with Sketch.</desc>
<g id="Symbols">
	<g id="Header" transform="translate(-134.000000, -24.000000)">
		<g id="TOP-NAV">
			<g>
				<g transform="translate(135.000000, 20.000000)">
					<g class="st0">
						<path class="st1" d="M27.2,36.2h-6.7V23.5H7.2v12.7H0.6V5h6.7v12.5h13.3V5h6.7V36.2z"/>
						<path class="st1" d="M38.4,9.1c3.3-3.2,7.3-4.8,12-4.8c4.7,0,8.7,1.6,12,4.8s4.9,7,4.9,11.5s-1.6,8.3-4.9,11.5
							c-3.3,3.2-7.3,4.8-12,4.8c-4.7,0-8.7-1.6-12-4.8c-3.3-3.2-4.9-7-4.9-11.5S35.1,12.3,38.4,9.1z M43.3,27.9c1.9,2,4.3,3,7.1,3
							c2.8,0,5.2-1,7.1-3c1.9-2,2.9-4.4,2.9-7.3s-1-5.3-2.9-7.3c-1.9-2-4.3-3-7.1-3c-2.8,0-5.1,1-7.1,3c-1.9,2-2.9,4.4-2.9,7.3
							S41.3,25.9,43.3,27.9z"/>
						<path class="st1" d="M100.9,5h5.9v31.1h-6.7V15.4l-10,12.7l-10-12.7v20.7h-6.7V5h6l10.7,13.6L100.9,5z"/>
						<path class="st1" d="M138.2,30.2v6h-23.4V5h22.9v6h-16.2v6.2h12.7v6h-12.7v6.9H138.2z"/>
					</g>
					<g class="st0">
						<path class="st2" d="M9.8,52.2c-0.6-0.4-1.4-0.7-2.4-1c-0.9-0.3-1.9-0.6-2.8-0.9S3,49.3,2.3,48.5c-0.7-0.8-1-1.9-1-3.1
							c0-1.5,0.6-2.9,1.9-4s2.9-1.6,4.8-1.6c0.8,0,1.5,0.1,2.3,0.3c0.7,0.2,1.3,0.4,1.8,0.6s0.9,0.5,1.2,0.7s0.6,0.5,0.8,0.7
							l0.2,0.3L11.9,45c-0.1-0.1-0.3-0.3-0.4-0.5s-0.6-0.4-1.2-0.7c-0.6-0.3-1.2-0.5-1.9-0.5c-0.8,0-1.4,0.2-1.9,0.6
							c-0.5,0.4-0.7,0.9-0.7,1.5c0,0.6,0.3,1.2,1,1.5s1.4,0.7,2.4,1s1.8,0.6,2.8,0.9s1.7,0.9,2.4,1.8c0.7,0.8,1,1.9,1,3.1
							c0,1.8-0.6,3.2-1.9,4.3c-1.3,1.1-3.1,1.7-5.3,1.7c-0.9,0-1.8-0.1-2.6-0.3c-0.8-0.2-1.5-0.5-2.1-0.8s-1-0.6-1.4-0.9
							c-0.4-0.3-0.7-0.6-0.9-0.8l-0.3-0.3l2.5-2.5c0.1,0.1,0.3,0.3,0.5,0.6c0.2,0.2,0.7,0.5,1.5,0.9C6,56,6.8,56.2,7.7,56.2
							c1,0,1.8-0.2,2.3-0.7c0.6-0.5,0.8-1.1,0.8-1.8C10.8,53.1,10.5,52.6,9.8,52.2z"/>
						<path class="st2" d="M33.7,55.7v3.7H19.3V40.2h14.1v3.7h-10v3.8h7.8v3.7h-7.8v4.2H33.7z"/>
						<path class="st2" d="M37.9,40.2h8.5c1.9,0,3.5,0.6,4.7,1.8c1.2,1.2,1.9,2.7,1.9,4.5c0,0.8-0.1,1.5-0.4,2.2
							c-0.2,0.7-0.5,1.2-0.8,1.6s-0.7,0.8-1,1.1s-0.6,0.5-0.9,0.6l-0.3,0.2l4.1,7.3h-4.4l-3.7-6.7H42v6.7h-4.1L37.9,40.2z
							 M48.1,44.6c-0.5-0.5-1.1-0.7-1.9-0.7H42V49h4.2c0.7,0,1.4-0.2,1.9-0.7c0.5-0.5,0.7-1.1,0.7-1.8
							C48.8,45.7,48.6,45.1,48.1,44.6z"/>
						<path class="st2" d="M55.3,40.2h4.4l4.9,14.2l4.9-14.2h4.4l-7.1,19.2h-4.4L55.3,40.2z"/>
						<path class="st2" d="M77.3,40.2h4.1v19.2h-4.1V40.2z"/>
						<path class="st2" d="M98.9,40.2c0.9,0.3,1.7,0.6,2.2,1s1.1,0.7,1.6,1.1c0.5,0.4,0.8,0.7,1,0.9l0.3,0.4l-2.6,2.6
							c-0.1-0.1-0.1-0.2-0.2-0.3c-0.1-0.1-0.3-0.3-0.6-0.7c-0.3-0.3-0.7-0.6-1.1-0.8c-0.4-0.2-0.9-0.5-1.5-0.7
							c-0.6-0.2-1.3-0.3-1.9-0.3c-1.8,0-3.3,0.6-4.5,1.8s-1.8,2.7-1.8,4.5s0.6,3.3,1.8,4.5s2.7,1.8,4.5,1.8c0.7,0,1.4-0.1,2-0.3
							c0.6-0.2,1.2-0.4,1.6-0.7c0.4-0.3,0.8-0.5,1.1-0.8c0.3-0.3,0.6-0.5,0.7-0.7l0.2-0.3l2.5,2.6c-0.1,0.1-0.2,0.2-0.3,0.4
							c-0.1,0.2-0.5,0.5-1,0.9c-0.5,0.4-1,0.8-1.6,1.2c-0.6,0.3-1.3,0.6-2.3,0.9S97,59.8,96,59.8c-2.9,0-5.4-1-7.4-2.9
							c-2-2-3-4.3-3-7.1s1-5.1,3-7.1c2-2,4.5-2.9,7.4-2.9C97,39.8,98,39.9,98.9,40.2z"/>
						<path class="st2" d="M122.2,55.7v3.7h-14.4V40.2h14.1v3.7h-10v3.8h7.8v3.7h-7.8v4.2H122.2z"/>
						<path class="st2" d="M133.8,52.2c-0.6-0.4-1.4-0.7-2.4-1c-0.9-0.3-1.9-0.6-2.8-0.9c-0.9-0.4-1.7-0.9-2.4-1.8
							c-0.7-0.8-1-1.9-1-3.1c0-1.5,0.6-2.9,1.9-4c1.2-1.1,2.9-1.6,4.8-1.6c0.8,0,1.5,0.1,2.3,0.3s1.3,0.4,1.8,0.6s0.9,0.5,1.2,0.7
							c0.4,0.3,0.6,0.5,0.8,0.7l0.2,0.3l-2.5,2.6c-0.1-0.1-0.3-0.3-0.4-0.5s-0.6-0.4-1.2-0.7c-0.6-0.3-1.2-0.5-1.9-0.5
							c-0.8,0-1.4,0.2-1.9,0.6c-0.5,0.4-0.7,0.9-0.7,1.5c0,0.6,0.3,1.2,1,1.5c0.6,0.4,1.4,0.7,2.4,1c0.9,0.3,1.8,0.6,2.8,0.9
							s1.7,0.9,2.4,1.8c0.7,0.8,1,1.9,1,3.1c0,1.8-0.6,3.2-1.9,4.3c-1.3,1.1-3.1,1.7-5.3,1.7c-0.9,0-1.8-0.1-2.6-0.3
							s-1.5-0.5-2.1-0.8s-1-0.6-1.4-0.9c-0.4-0.3-0.7-0.6-0.9-0.8l-0.3-0.3l2.5-2.5c0.1,0.1,0.3,0.3,0.5,0.6
							c0.2,0.2,0.7,0.5,1.5,0.9c0.8,0.4,1.6,0.6,2.5,0.6c1,0,1.8-0.2,2.3-0.7c0.6-0.5,0.8-1.1,0.8-1.8
							C134.7,53.1,134.4,52.6,133.8,52.2z"/>
					</g>
					</g>
			</g>
		</g>
	</g>
</g>
</svg>
