<?xml version="1.0" standalone="no"?>
<!DOCTYPE svg PUBLIC "-//W3C//DTD SVG 20010904//EN"
 "http://www.w3.org/TR/2001/REC-SVG-20010904/DTD/svg10.dtd">
<svg version="1.0" xmlns="http://www.w3.org/2000/svg"
 width="100.000000pt" height="100.000000pt" viewBox="0 0 100.000000 100.000000"
 preserveAspectRatio="xMidYMid meet">

<g transform="translate(0.000000,100.000000) scale(0.100000,-0.100000)"
fill="#000000" stroke="none">
<path d="M490 725 c0 -57 4 -95 10 -95 6 0 10 38 10 95 0 57 -4 95 -10 95 -6
0 -10 -38 -10 -95z"/>
<path d="M272 685 c23 -47 46 -85 50 -85 4 0 -11 38 -34 85 -23 47 -46 85 -50
85 -4 0 11 -38 34 -85z"/>
<path d="M712 685 c-23 -47 -38 -85 -34 -85 4 0 27 38 50 85 23 47 38 85 34
85 -4 0 -27 -38 -50 -85z"/>
<path d="M390 520 c-79 -10 -184 -36 -222 -56 -34 -17 -76 -97 -84 -158 -6
-39 -3 -48 19 -70 23 -23 34 -26 100 -26 106 0 120 13 127 116 l5 78 50 13
c64 16 166 16 230 0 l50 -13 5 -78 c7 -103 21 -116 127 -116 66 0 77 3 100 26
22 22 25 31 19 70 -8 63 -50 141 -86 159 -83 43 -311 72 -440 55z m282 -24
c131 -25 169 -45 200 -101 30 -54 38 -131 16 -153 -16 -16 -170 -16 -186 0
-26 26 -13 38 41 40 l52 2 -52 3 -53 4 0 59 0 59 -57 17 c-32 10 -92 17 -133
17 -41 0 -101 -7 -132 -17 l-58 -17 0 -77 c0 -47 -5 -83 -12 -90 -16 -16 -170
-16 -186 0 -26 26 -13 38 41 40 l52 2 -52 3 c-50 4 -53 6 -53 31 0 15 13 49
28 77 23 42 35 52 77 68 122 46 325 60 467 33z"/>
</g>
</svg>
