<svg id="SvgjsSvg1006" width="288" height="288" xmlns="http://www.w3.org/2000/svg" version="1.1" xmlns:xlink="http://www.w3.org/1999/xlink" xmlns:svgjs="http://svgjs.com/svgjs"><defs id="SvgjsDefs1007"></defs><g id="SvgjsG1008" transform="matrix(1,0,0,1,0,0)"><svg xmlns="http://www.w3.org/2000/svg" width="288" height="288" version="1.0" viewBox="0 0 50 50"><g transform="matrix(.1 0 0 -.1 0 50)" fill="#717171" class="color000 svgShape"><path d="M230 467 c0 -23 -22 -38 -37 -25 -21 17 -51 -15 -34 -36 11 -13 9-17 -13 -27 -27 -13 -36 -49 -12 -49 22 0 38 -24 24 -38 -18 -18 15 -50 35
-34 15 13 37 -2 37 -25 0 -7 9 -13 20 -13 11 0 20 6 20 14 0 22 24 38 38 24
18 -18 50 15 34 35 -13 15 2 37 25 37 7 0 13 9 13 20 0 11 -6 20 -13 20 -23 0
-38 22 -25 37 17 21 -15 51 -36 34 -13 -11 -17 -9 -27 13 -12 27 -49 36 -49
13z m30 -21 c0 -18 31 -29 55 -19 15 5 17 3 12 -12 -10 -24 1 -55 19 -55 8 0
14 -4 14 -10 0 -5 -6 -10 -14 -10 -18 0 -29 -31 -19 -55 5 -15 3 -17 -12 -12
-24 10 -55 -1 -55 -19 0 -8 -4 -14 -10 -14 -5 0 -10 6 -10 14 0 18 -27 28 -53
20 -16 -5 -19 -3 -13 11 9 24 -2 55 -20 55 -8 0 -14 5 -14 10 0 6 6 10 14 10
18 0 28 27 20 53 -5 16 -3 19 11 13 24 -9 55 2 55 20 0 8 5 14 10 14 6 0 10
-6 10 -14z" fill="#717171" class="color000 svgShape"></path><path d="M220 380c-11-11-20-24-20-30 0-5 9-19 20-30 11-11 25-20 30-20 6 0 19 9 30 20 11 11 20 25 20 30 0 6-9 19-20 30-11 11-24 20-30 20-5 0-19-9-30-20zm55-30c0-18-6-26-23-28-13-2-25 3-28 12-10 26 4 48 28 44 17-2 23-10 23-28zM77 198c-26-11-47-25-47-29 0-5 18 0 40 11 49 25 100 26 132 1 13-11 45-22 71-26 31-5 47-12 47-22 0-12-14-14-70-11-73 3-93-5-39-16 65-13 95-6 158 34 61 40 91 49 91 30 0-15-179-130-201-130-11 0-42 11-69 25-57 29-78 31-106 10-22-17-12-20 18-4 16 9 33 5 89-21 67-31 68-31 101-14 46 23 175 111 183 124 9 14-15 42-30 36-7-2-32 2-56 10-40 14-45 14-91-10l-48-25-47 24c-55 30-65 30-126 3zm269-13c-11-8-29-15-40-15-21 1-21 1-2 15 11 8 29 15 40 15 21-1 21-1 2-15zm64 1c0-10-72-48-78-41-9 9 39 44 61 45 9 0 17-2 17-4z" fill="#717171" class="color000 svgShape"></path></g></svg></g></svg>