<?xml version="1.0" standalone="no"?>
<!DOCTYPE svg PUBLIC "-//W3C//DTD SVG 20010904//EN"
 "http://www.w3.org/TR/2001/REC-SVG-20010904/DTD/svg10.dtd">
<svg version="1.0" xmlns="http://www.w3.org/2000/svg"
 width="288.000000pt" height="288.000000pt" viewBox="0 0 288.000000 288.000000"
 preserveAspectRatio="xMidYMid meet">

<g transform="translate(0.000000,288.000000) scale(0.100000,-0.100000)"
fill="#000000" stroke="none">
<path d="M1347 2742 c-10 -10 -17 -29 -17 -43 0 -50 -23 -105 -60 -141 -32
-33 -44 -38 -81 -38 -29 1 -58 9 -84 25 -50 31 -92 32 -136 2 -85 -57 -100
-130 -45 -216 45 -70 39 -85 -54 -135 -41 -22 -91 -57 -112 -79 -58 -60 -81
-165 -43 -197 7 -6 39 -15 71 -20 65 -11 98 -31 132 -80 29 -43 28 -88 -2
-133 -13 -19 -27 -44 -31 -56 -17 -55 47 -139 124 -162 36 -11 44 -9 105 21
59 28 69 30 100 20 19 -6 49 -27 65 -45 27 -32 37 -54 55 -136 7 -31 57 -59
106 -59 49 0 99 28 106 59 18 80 27 103 51 132 28 32 78 59 111 59 11 0 39
-13 63 -30 53 -36 94 -38 140 -7 79 53 100 136 54 212 -31 50 -31 83 -2 125
33 49 66 69 126 79 60 9 76 24 92 83 20 75 -20 148 -81 148 -41 0 -113 42
-138 80 -28 42 -26 93 7 139 14 19 21 44 21 75 0 39 -6 52 -36 86 -61 67 -126
72 -208 16 -21 -14 -45 -26 -52 -26 -22 0 -51 35 -83 98 -16 33 -41 73 -56 90
-53 63 -172 94 -208 54z m119 -100 c17 -11 34 -48 34 -76 0 -40 54 -94 113
-111 68 -20 119 -19 194 5 94 29 109 16 77 -71 -22 -60 -22 -164 0 -214 23
-53 64 -95 93 -95 39 0 90 -26 96 -50 8 -31 -29 -65 -80 -73 -54 -9 -96 -51
-114 -114 -17 -60 -15 -144 5 -202 24 -65 21 -81 -12 -81 -16 0 -50 7 -76 16
-34 12 -68 15 -116 12 -108 -8 -180 -61 -180 -131 0 -31 -36 -77 -59 -77 -28
0 -53 35 -62 87 -19 106 -152 151 -311 107 -51 -15 -61 -15 -73 -3 -12 12 -12
23 6 79 25 77 20 160 -12 226 -23 49 -51 70 -111 83 -49 11 -79 41 -71 72 6
23 57 49 95 49 49 1 93 58 108 142 8 44 7 72 -5 130 -26 127 -22 134 65 103
55 -19 144 -19 203 1 56 19 107 73 107 113 0 52 52 96 86 73z"/>
<path d="M1375 2271 c-62 -35 -181 -159 -205 -214 -21 -47 -16 -67 36 -138 46
-63 130 -139 187 -169 l46 -24 43 21 c79 38 210 173 237 245 14 37 -16 94 -93
176 -71 75 -150 132 -182 132 -10 0 -42 -13 -69 -29z m128 -105 c18 -7 40 -23
51 -34 44 -50 40 -197 -7 -239 -69 -63 -209 -53 -251 18 -28 47 -32 146 -8
189 40 73 132 101 215 66z"/>
<path d="M691 1234 c-57 -15 -262 -99 -346 -141 -70 -36 -165 -102 -165 -115
0 -23 89 1 225 62 162 72 256 99 375 107 145 10 287 -28 383 -101 82 -63 232
-117 430 -156 167 -32 241 -65 247 -110 5 -36 -2 -51 -32 -67 -30 -16 -63 -17
-359 -15 -342 4 -428 -4 -398 -34 18 -18 135 -47 274 -69 149 -24 299 -16 415
20 104 33 239 102 430 222 174 108 287 167 369 189 56 16 62 16 85 0 41 -26
34 -57 -26 -111 -79 -71 -195 -155 -398 -290 -341 -225 -624 -383 -702 -392
-61 -7 -191 38 -408 141 -277 132 -374 156 -482 121 -81 -26 -188 -107 -188
-142 0 -11 66 11 139 45 131 63 190 51 545 -110 373 -168 386 -170 548 -91
222 108 843 516 1036 680 47 40 52 49 52 84 0 46 -11 72 -49 112 -41 45 -69
55 -156 55 -90 0 -169 16 -330 68 -131 43 -188 50 -252 35 -26 -6 -153 -64
-281 -129 l-233 -117 -232 117 c-127 64 -256 124 -286 132 -67 20 -158 19
-230 0z m1383 -93 c9 -14 -89 -87 -163 -123 -58 -28 -77 -32 -150 -33 -55 0
-85 4 -88 12 -6 17 121 103 191 129 63 24 199 33 210 15z m279 -58 c35 -21
-61 -96 -237 -183 -123 -62 -197 -83 -210 -61 -28 45 168 202 308 247 37 12
118 10 139 -3z"/>
</g>
</svg>
